<?xml version="1.0" encoding="utf-8"?>
<!-- Generator: Adobe Illustrator 22.1.0, SVG Export Plug-In . SVG Version: 6.00 Build 0)  -->
<svg version="1.1" id="Layer_1" xmlns="http://www.w3.org/2000/svg" xmlns:xlink="http://www.w3.org/1999/xlink" x="0px" y="0px"
	 viewBox="0 0 227.9 56" style="enable-background:new 0 0 227.9 56;" xml:space="preserve">
<style type="text/css">
	.st0{fill:#FFFFFF;}
	.st1{fill:#FED206;}
	.st2{clip-path:url(#SVGID_2_);}
	.st3{clip-path:url(#SVGID_4_);}
	.st4{clip-path:url(#SVGID_6_);}
	.st5{fill:#FFCC06;}
</style>
<g transform="matrix(1.25 0 0 -1.25 -244.64 770.03)">
	<g transform="translate(.20095 .20095)">
		<path class="st5" d="M225.1,583.1l-9.3,12.8v-9.3h3.7v-9.2h-17.2v9.2h3.5V601h-3.5v9.2h13.5l9.3-13l9.3,13H248V601h-3.5v-14.4h3.5
			v-9.2h-17.2v9.2h3.7v9.3L225.1,583.1z"/>
		<path class="st0" d="M317.1,609.8c-1.8,0-3.4-1.1-3.4-3.1c0-2,1.6-2.7,2.5-3c0.4-0.2,0.9-0.3,1.3-0.5c0.5-0.2,1.7-0.7,1.7-1.9
			c0-1.1-1-1.6-2.1-1.6c-1.6,0-2.6,0.9-3.1,2.6l-0.5-0.1l0.2-2.1l0.9-0.6c0.4-0.3,1.3-0.8,2.7-0.8c2.2,0,3.7,1.5,3.7,3.3
			c0,1.3-0.7,2.2-1.5,2.7c-0.4,0.3-0.9,0.4-1.5,0.6c-1.2,0.4-2.4,0.8-2.4,2.1c0,0.8,0.7,1.4,1.8,1.4c0.8,0,1.6-0.3,2.1-1
			c0.4-0.6,0.6-0.9,0.7-1.6l0.5,0.1l-0.3,3.1l-0.6-0.5C318.7,609.6,317.9,609.8,317.1,609.8L317.1,609.8z M358.2,609.7
			c-3.4,0-5.3-2.6-5.3-5.5c0-3.4,2.4-5.6,5.5-5.6c2.8,0,5.3,1.9,5.3,5.5C363.6,607.4,361.4,609.7,358.2,609.7L358.2,609.7z
			 M337.5,609.6V609c1-0.1,1-0.1,1.8-1.2l2.8-4.3v-1.8c0-1.1,0-1.4-0.3-1.7c-0.2-0.2-0.5-0.2-1.3-0.3V599h5.2v0.6
			c-1.6,0.1-1.6,0.2-1.6,2.1v2.2l1.6,2.7c1.2,2,1.5,2.3,2.6,2.3v0.6h-4.1V609c0.7,0,1.2-0.1,1.2-0.6c0-0.2-0.1-0.6-0.4-1.1l-1.5-2.6
			l-1.6,2.6c-0.3,0.4-0.5,0.8-0.5,1.1c0,0.5,0.5,0.5,1.6,0.6v0.6L337.5,609.6L337.5,609.6z M303.5,609.5V609
			c0.9-0.1,1.1-0.2,1.2-0.8c0-0.3,0.1-0.8,0.1-2.1v-3.8c0-0.4,0-0.9,0-1.4c0-1.1-0.1-1.3-1.3-1.4V599h4.4v0.6
			c-1.3,0-1.3,0.4-1.3,2.8l0,1.4c1,0,1.2,0.1,1.8-1.3l0.6-1.2c0.8-1.8,1.7-2.5,3.6-2.5c0.2,0,0.5,0,0.7,0v0.4
			c-0.9,0.1-1.2,0.4-1.9,1.6l-1.9,3.2c1.4,0.4,2.1,1.8,2.1,2.8c0,1.5-0.8,2.7-3.4,2.7L303.5,609.5L303.5,609.5z M294.3,609.5V609
			c0.8-0.1,1.1-0.1,1.2-0.6c0.1-0.3,0.1-1.5,0.1-1.9v-3.7c0-0.3,0-1.6,0-1.8c0-1.1-0.2-1.3-1.3-1.4V599h8c0,0.8,0.1,2,0.2,2.7H302
			c-0.4-1.9-1.4-1.8-2.9-1.8c-1.4,0-1.7,0.4-1.7,1.1v2.9h1.1c1.3,0,1.7-0.1,1.7-1.3h0.5v3.5h-0.5c-0.1-0.9-0.3-1.2-1.7-1.2h-1.1v3.7
			h1.3c1.8,0,2.4-0.1,2.7-1.6h0.5l-0.1,2.5L294.3,609.5L294.3,609.5z M327.1,609.5l-0.1-3h0.6c0.1,1.9,0.9,1.8,2.1,1.8h1.3v-7.8
			c0-0.8-0.3-1.2-1.2-1.2V599h4.4l0,0.4c-1,0-1.2,0.4-1.2,1.2v7.8h1.3c1.2,0,2,0,2.1-1.8h0.6l-0.1,3H327.1L327.1,609.5z
			 M253.4,609.5V609c0.8,0,1.1-0.2,1.2-0.8c0-0.3,0-0.8,0-1.9v-2.4c0-1.7,0-3.3,1.6-4.3c1-0.7,2.2-0.7,2.8-0.7c0.7,0,3.5,0.1,4.2,3
			c0.2,0.8,0.2,1.6,0.3,2.4c0,0.4,0.1,3.4,0.1,3.6c0.1,1,0.3,1.3,1.3,1.3v0.6h-4V609c0.9-0.1,1.4-0.1,1.5-1.1c0-0.3,0-1.6,0-2
			c0-1.2,0-3.1-0.3-4.1c-0.4-1.2-1.2-2-2.7-2c-0.5,0-1.4,0.1-1.9,0.9c-0.7,1-0.7,2.1-0.7,3.4v2.5c0,2.2,0,2.3,1.4,2.4v0.6
			L253.4,609.5L253.4,609.5z M265.6,609.5V609c0.7-0.1,0.9-0.2,1.5-0.7c0-1.1-0.1-7.3-0.2-8c-0.1-0.6-0.4-0.6-1.3-0.7V599h4.3v0.6
			c-1.6,0.2-1.7,0.2-1.7,1.9v5.5l4.2-5.1c0.5-0.6,1-1.2,1.4-1.8l0.9-1.2h0.6l0.1,8.1c0,1.7,0.1,2,1.3,2v0.6h-4.1V609
			c1.7-0.1,1.7-0.1,1.7-1.8v-4.7l-2.9,3.6c-1.6,1.9-1.7,2.2-2.6,3.5L265.6,609.5L265.6,609.5z M277.9,609.5V609
			c1.2-0.2,1.2-0.2,1.3-2.4v-4.3v-1.3c0-1.1-0.2-1.2-1.3-1.4V599h4.4v0.6c-0.8,0.1-1.1,0.2-1.2,0.8c0,0.3,0,1.5,0,1.9v4.2
			c0,2.3,0,2.3,1.2,2.4v0.6H277.9L277.9,609.5z M283.3,609.5V609c1.1-0.2,1.1-0.4,1.9-2.4l2.9-7.8h0.6l3.2,7.7c0.9,2.1,1,2.4,2,2.5
			v0.6h-3.7V609c0.7,0,1.4,0,1.4-0.8c0-0.3-0.2-0.7-0.3-1.1l-2.1-5.5l-1.8,5.4c-0.3,0.9-0.4,1.1-0.4,1.4c0,0.6,0.6,0.6,1.4,0.7v0.6
			H283.3L283.3,609.5z M321.6,609.5V609c1.2-0.2,1.2-0.2,1.3-2.4v-4.3v-1.3c0-1.1-0.2-1.2-1.3-1.4V599h4.4v0.6
			c-0.8,0.1-1.1,0.2-1.2,0.8c0,0.3,0,1.5,0,1.9v4.2c0,2.3,0,2.3,1.2,2.4v0.6H321.6L321.6,609.5z M364.2,609.5v-0.6
			c0.8-0.1,1.1-0.1,1.2-0.6c0.1-0.3,0.1-1.5,0.1-1.9l0-3.7c0-0.3,0-1.6,0-1.8c0-1.1-0.2-1.3-1.3-1.4v-0.6h4.4v0.6
			c-1.1,0.1-1.2,0.2-1.3,1.4l0,3h1.2c1.2,0,1.8-0.1,1.9-1.3h0.5v3.5h-0.5c-0.1-1.1-0.4-1.2-1.7-1.2h-1.4l0,3.6
			c0.4,0,0.6,0.1,1.3,0.1c2.1,0,2.7,0,3-1.6h0.5l-0.2,2.6L364.2,609.5L364.2,609.5z M358.2,608.7c0.9,0,1.5-0.5,1.9-0.9
			c0.8-0.8,1.2-2,1.2-3.3c0-1.4-0.1-2.4-0.9-3.6c-0.7-1-1.5-1.3-2.1-1.3c-0.6,0-1.4,0.3-2.1,1.2c-0.8,1.1-1,2.2-1,3.5
			c0,1.4,0.3,2.5,1.1,3.4C356.7,608.2,357.4,608.7,358.2,608.7L358.2,608.7z M307.3,608.6c1.9,0,2.6-1.1,2.5-2.3
			c0-0.8-1-1.8-2.1-1.8c-0.3,0-0.7,0-1,0.1v3.9C306.9,608.6,307,608.6,307.3,608.6L307.3,608.6z M348.9,594.6
			c-0.8-0.6-1.3-0.9-3.2-1.5l0.2-0.4l-4.3-11.8c-0.6-1.7-1.2-2-2.8-2.1V578h6.6v0.9c-1,0-2.2,0.1-2.2,1.2c0,0.3,0.1,0.7,0.2,1
			l0.5,1.4h5.6l0.5-1.6c0.1-0.3,0.2-0.6,0.2-0.9c0-0.9-0.8-1-1.9-1V578h7h0.5h6v0.9c-2.4,0.2-2.6,0.3-2.6,2.9v8.3l6.3-7.8
			c0.7-0.9,1.4-1.8,2.2-2.7l1.4-1.8h0.9l0.2,12.3c0,2.6,0.2,3,1.9,3v0.9h-6.3v-0.9c2.5-0.1,2.6-0.2,2.6-2.8v-7.1l-4.4,5.5
			c-2.3,2.9-2.6,3.3-4,5.2h-4.8v-0.9c1.1-0.1,1.4-0.2,2.3-1.1c0-1.6-0.1-11.1-0.3-12.2c-0.2-0.8-0.6-0.9-1.7-1
			c-1.6,0.2-1.9,0.7-2.5,2.6l-3.5,10.8C349.3,593.4,349.2,593.5,348.9,594.6L348.9,594.6z M331.6,594.3c-4.3,0-7.8-3.3-7.8-8.4
			c0-4.2,2.6-8.3,8.1-8.3c3.1,0,4.9,1.1,6.1,1.9v1.2c0,3,0,3.4,1.5,3.5v0.9h-6.4v-0.9c1.8-0.2,2-0.2,2.1-2.3c0-0.7,0-1.1-0.3-1.5
			c-0.1-0.1-1-1.3-2.8-1.3c-3.1,0-4.9,3.1-4.9,6.8c0,4.6,2.3,6.9,5.1,6.9c1.6,0,2.6-0.7,3.1-1.2c1.2-1.2,1.7-2.3,2-3.2l0.6,0.1
			l-0.1,5l-0.8-0.9C335.9,593.3,334.3,594.3,331.6,594.3L331.6,594.3z M290.7,594.3c-5.4,0-8-4.2-8-8.6c0-4.6,3.1-8.2,7.9-8.2
			c4.4,0,6.1,2.8,6.8,4l-0.9,0.7c-0.8-1.2-1.9-2.8-4.7-2.8c-3.7,0-5.6,3.3-5.6,6.8c0,4.1,2.3,6.5,5.1,6.5c1.7,0,2.9-1,3.3-1.6
			c1-1.1,1.4-1.9,1.7-2.8l0.7,0.1l-0.1,4.8l-1.1-1C295.1,593.1,293.6,594.3,290.7,594.3L290.7,594.3z M254,593.9v-0.9
			c1.4,0,1.7-0.1,1.7-1.7c0-0.6,0-1.3,0-1.9l-0.2-6.7c0-0.9-0.1-2.2-0.1-2.6c-0.1-1.1-0.6-1.3-1.9-1.3V578h5.5v0.9
			c-1.7,0.1-1.9,0.4-1.9,2l0.1,9.4l5.1-12.4h1.4l5.6,12.3v-8c0-3,0-3-2-3.2V578h7v0.9c-1.3,0.1-1.7,0.3-1.8,1.5
			c-0.1,0.8-0.1,2.2-0.1,3.2v6.6c0,2.5,0,2.7,1.9,2.8v0.9h-4.9l-5.5-12.1l-5,12.1L254,593.9L254,593.9z M275.9,593.9v-0.9
			c1.9-0.3,1.9-0.4,1.9-3.7v-6.5v-2c0-1.7-0.3-1.9-1.9-2.1V578h6.6v0.9c-1.2,0.1-1.7,0.3-1.8,1.3c0,0.5-0.1,2.3-0.1,2.8v6.4
			c0,3.4,0,3.5,1.9,3.7v0.9H275.9L275.9,593.9z M298.6,593.9v-0.9c1.2-0.1,1.7-0.2,1.8-1.2c0.1-0.5,0.1-1.5,0.1-2.6v-6.7
			c0-0.6,0-1.1,0-1.7c0-1.5,0-1.9-1.8-2.1V578h6.8v0.9c-2.1,0.2-2.1,0.2-2.1,3.5v2.9c1.4,0.1,2.5,0.1,3.8,0.1c1.3,0,2.4-0.1,3.6-0.1
			v-2.9c0-1.2,0-1.8,0-2.2c-0.1-1.1-0.6-1.1-2.2-1.3V578h6.9v0.9c-1.2,0.1-1.6,0.3-1.8,1.1c-0.1,0.5-0.1,2.5-0.1,3.1v6.7
			c0,3,0,3,1.9,3.3v0.9h-6.9v-0.9c2.2-0.2,2.2-0.3,2.2-3.2v-2.7c-1.4-0.1-2.4-0.1-3.8-0.1c-1.3,0-2.3,0-3.7,0.1v2.2
			c0,0.9,0,2.1,0.1,2.6c0.2,0.9,0.7,0.9,2,1.1v0.9L298.6,593.9L298.6,593.9z M316.8,593.9v-0.9c1.9-0.3,1.9-0.4,1.9-3.7v-6.5v-2
			c0-1.7-0.3-1.9-1.9-2.1V578h6.6v0.9c-1.2,0.1-1.7,0.3-1.8,1.3c0,0.5-0.1,2.3-0.1,2.8v6.4c0,3.4,0,3.5,1.9,3.7v0.9H316.8
			L316.8,593.9z M346.9,590.8l2.2-6.6h-4.6L346.9,590.8L346.9,590.8z"/>
	</g>
</g>
</svg>
